<svg id="SvgjsSvg1000" xmlns="http://www.w3.org/2000/svg" version="1.1" xmlns:xlink="http://www.w3.org/1999/xlink" xmlns:svgjs="http://svgjs.com/svgjs" width="36" height="36" viewBox="0 0 36 36"><title>Back</title><desc>Created with Avocode.</desc><defs id="SvgjsDefs1001"></defs><path id="SvgjsPath1007" d="M63.14 123.14H30.93L46.61 107.46000000000001C46.94 107.13000000000001 46.94 106.59 46.61 106.25000000000001C46.269999999999996 105.92000000000002 45.73 105.92000000000002 45.39 106.25000000000001L28.25 123.39000000000001C27.92 123.73000000000002 27.92 124.27000000000001 28.25 124.61000000000001L45.39 141.75C45.56 141.92 45.78 142 46 142C46.22 142 46.44 141.92 46.61 141.75C46.94 141.41 46.94 140.87 46.61 140.54L30.93 124.85999999999999H63.14C63.62 124.85999999999999 64 124.46999999999998 64 123.99999999999999C64 123.52999999999999 63.62 123.13999999999999 63.14 123.13999999999999 " fill="#ffffff" fill-opacity="1" transform="matrix(1,0,0,1,-28,-106)"></path></svg>