<svg id="SvgjsSvg1024" xmlns="http://www.w3.org/2000/svg" version="1.1" xmlns:xlink="http://www.w3.org/1999/xlink" xmlns:svgjs="http://svgjs.com/svgjs" width="24" height="44" viewBox="0 0 24 44"><title>Bolt</title><desc>Created with Avocode.</desc><defs id="SvgjsDefs1025"></defs><path id="SvgjsPath1026" d="M81.63 899.92C77.32 907.37 73 914.8299999999999 68.69 922.28C68.67999999999999 922.31 68.66 922.3399999999999 68.64 922.37C68.35 922.91 68 923.44 67.27 923.17C66.50999999999999 922.9 66.69 922.2299999999999 66.78999999999999 921.66C67.11999999999999 919.78 67.49 917.91 67.83999999999999 916.04C68.46 912.75 69.08999999999999 909.4599999999999 69.71 906.17C69.75999999999999 905.89 69.77999999999999 905.5999999999999 69.82 905.1899999999999C69.41 905.18 69.07 905.14 68.72999999999999 905.15C66.28999999999999 905.15 63.84999999999999 905.17 61.41999999999999 905.18C59.97999999999999 905.18 59.639999999999986 904.5899999999999 60.36999999999999 903.3299999999999C64.67999999999999 895.8699999999999 68.99999999999999 888.42 73.30999999999999 880.9599999999999C73.32999999999998 880.9399999999999 73.33999999999999 880.91 73.35999999999999 880.8799999999999C73.64999999999999 880.3299999999999 73.99999999999999 879.8099999999998 74.72999999999999 880.0699999999999C75.49 880.3499999999999 75.30999999999999 881.02 75.21 881.5899999999999C74.88 883.4699999999999 74.50999999999999 885.3299999999999 74.16 887.2099999999999C73.53999999999999 890.4999999999999 72.91 893.79 72.28999999999999 897.0799999999999C72.24 897.3599999999999 72.22 897.65 72.17999999999999 898.05C72.58999999999999 898.0699999999999 72.92999999999999 898.0999999999999 73.27 898.0999999999999C75.71 898.0899999999999 78.14999999999999 898.0699999999999 80.58 898.0699999999999C82.02 898.06 82.36 898.66 81.63 899.92 " fill="#1fce99" fill-opacity="1" transform="matrix(1,0,0,1,-59,-880)"></path></svg>