<svg id="SvgjsSvg1000" xmlns="http://www.w3.org/2000/svg" version="1.1" xmlns:xlink="http://www.w3.org/1999/xlink" xmlns:svgjs="http://svgjs.com/svgjs" width="29" height="32" viewBox="0 0 29 32"><title>Shape</title><desc>Created with Avocode.</desc><defs id="SvgjsDefs1001"></defs><path id="SvgjsPath1007" d="M100.49 465.09V463.52C100.49 463.22999999999996 100.25999999999999 463 99.97999999999999 463H96.41C96.13 463 95.89999999999999 463.23 95.89999999999999 463.52V465.09H84.66999999999999V463.52C84.66999999999999 463.22999999999996 84.44999999999999 463 84.15999999999998 463H80.58999999999999C80.30999999999999 463 80.07999999999998 463.23 80.07999999999998 463.52V465.09H76.50999999999999C76.22999999999999 465.09 75.99999999999999 465.32 75.99999999999999 465.60999999999996V493.77C75.99999999999999 494.06 76.22999999999999 494.28999999999996 76.50999999999999 494.28999999999996H104.05999999999999C104.33999999999999 494.28999999999996 104.57 494.05999999999995 104.57 493.77V465.60999999999996C104.57 465.31999999999994 104.33999999999999 465.09 104.05999999999999 465.09ZM99.47 464.04V467.17H96.92V464.04ZM83.65 464.04V467.17H81.10000000000001V464.04ZM80.08 466.13V467.69C80.08 467.98 80.31 468.21 80.59 468.21H84.16C84.45 468.21 84.67 467.97999999999996 84.67 467.69V466.13H95.9V467.69C95.9 467.98 96.13000000000001 468.21 96.41000000000001 468.21H99.98C100.26 468.21 100.49000000000001 467.97999999999996 100.49000000000001 467.69V466.13H103.55000000000001V470.82H77.02000000000001V466.13ZM77.02 471.87H103.55V493.25H77.02Z " fill="#000000" fill-opacity="1" transform="matrix(1,0,0,1,-76,-463)"></path><path id="SvgjsPath1008" d="M80 475V490.12H99.39V475ZM93.78 476.04V479.69H90.2V476.04ZM90.2 484.39V480.74H93.78V484.39ZM89.18 480.74V484.39H85.61000000000001V480.74ZM89.18 476.04V479.69H85.61000000000001V476.04ZM84.59 476.04V479.69H81.02000000000001V476.04ZM84.59 480.74V484.39H81.02000000000001V480.74ZM81.02 489.08V485.43H84.58999999999999V489.08ZM85.61 489.08V485.43H89.17999999999999V489.08ZM90.2 489.08V485.43H93.78V489.08ZM94.8 489.08V485.43H98.36999999999999V489.08ZM94.8 484.39V480.74H98.36999999999999V484.39ZM98.37 479.69H94.80000000000001V476.04H98.37Z " fill="#000000" fill-opacity="1" transform="matrix(1,0,0,1,-76,-463)"></path></svg>