<svg id="SvgjsSvg1015" xmlns="http://www.w3.org/2000/svg" version="1.1" xmlns:xlink="http://www.w3.org/1999/xlink" xmlns:svgjs="http://svgjs.com/svgjs" width="28.441194286418067" height="27.970597143208465" viewBox="0 0 28.441194286418067 27.970597143208465"><title>Close</title><desc>Created with Avocode.</desc><defs id="SvgjsDefs1016"></defs><path id="SvgjsPath1017" d="M598.34 163.5L609.83 152.02C610.0600000000001 151.78 610.0600000000001 151.41 609.83 151.17000000000002C609.59 150.94000000000003 609.22 150.94000000000003 608.98 151.17000000000002L597.5 162.66000000000003L586.02 151.17000000000002C585.78 150.94000000000003 585.41 150.94000000000003 585.17 151.17000000000002C584.9399999999999 151.41000000000003 584.9399999999999 151.78000000000003 585.17 152.02L596.66 163.5L585.17 174.98C584.9399999999999 175.22 584.9399999999999 175.59 585.17 175.82999999999998C585.29 175.94 585.4399999999999 175.99999999999997 585.5899999999999 175.99999999999997C585.7499999999999 175.99999999999997 585.8999999999999 175.93999999999997 586.0199999999999 175.82999999999998L597.4999999999999 164.33999999999997L608.9799999999999 175.82999999999998C609.0999999999999 175.94 609.2499999999999 175.99999999999997 609.4099999999999 175.99999999999997C609.5599999999998 175.99999999999997 609.7099999999998 175.93999999999997 609.8299999999998 175.82999999999998C610.0599999999998 175.58999999999997 610.0599999999998 175.21999999999997 609.8299999999998 174.98L598.3399999999998 163.5 " fill="#ffffff" fill-opacity="1" transform="matrix(1,0,0,1,-583.279402856791,-149.01470142839577)"></path><path id="SvgjsPath1018" d="M598.34 163.5L609.83 152.02C610.0600000000001 151.78 610.0600000000001 151.41 609.83 151.17000000000002C609.59 150.94000000000003 609.22 150.94000000000003 608.98 151.17000000000002L597.5 162.66000000000003L586.02 151.17000000000002C585.78 150.94000000000003 585.41 150.94000000000003 585.17 151.17000000000002C584.9399999999999 151.41000000000003 584.9399999999999 151.78000000000003 585.17 152.02L596.66 163.5L585.17 174.98C584.9399999999999 175.22 584.9399999999999 175.59 585.17 175.82999999999998C585.29 175.94 585.4399999999999 175.99999999999997 585.5899999999999 175.99999999999997C585.7499999999999 175.99999999999997 585.8999999999999 175.93999999999997 586.0199999999999 175.82999999999998L597.4999999999999 164.33999999999997L608.9799999999999 175.82999999999998C609.0999999999999 175.94 609.2499999999999 175.99999999999997 609.4099999999999 175.99999999999997C609.5599999999998 175.99999999999997 609.7099999999998 175.93999999999997 609.8299999999998 175.82999999999998C610.0599999999998 175.58999999999997 610.0599999999998 175.21999999999997 609.8299999999998 174.98L598.3399999999998 163.5 " fill-opacity="0" fill="#ffffff" stroke-dasharray="0" stroke-linejoin="miter" stroke-linecap="butt" stroke-opacity="1" stroke="#ffffff" stroke-miterlimit="50" stroke-width="2.5" transform="matrix(1,0,0,1,-583.279402856791,-149.01470142839577)"></path></svg>