<svg id="SvgjsSvg1019" xmlns="http://www.w3.org/2000/svg" version="1.1" xmlns:xlink="http://www.w3.org/1999/xlink" xmlns:svgjs="http://svgjs.com/svgjs" width="80" height="80" viewBox="0 0 80 80"><title>Rectangle 703 Copy</title><desc>Created with Avocode.</desc><defs id="SvgjsDefs1020"><clipPath id="SvgjsClipPath1023"><path id="SvgjsPath1022" d="M338 940C338 932.26801 344.26801 926 352 926H404C411.73199 926 418 932.26801 418 940V992C418 999.73199 411.73199 1006 404 1006H352C344.26801 1006 338 999.73199 338 992Z " fill="#ffffff"></path></clipPath></defs><path id="SvgjsPath1021" d="M338 940C338 932.26801 344.26801 926 352 926H404C411.73199 926 418 932.26801 418 940V992C418 999.73199 411.73199 1006 404 1006H352C344.26801 1006 338 999.73199 338 992Z " fill-opacity="0" fill="#ffffff" stroke-dasharray="0" stroke-linejoin="miter" stroke-linecap="butt" stroke-opacity="1" stroke="#4a90e2" stroke-miterlimit="50" stroke-width="4" clip-path="url(&quot;#SvgjsClipPath1023&quot;)" transform="matrix(1,0,0,1,-338,-926)"></path><path id="SvgjsPath1024" d="M390.36 966.29H364.64C364.28999999999996 966.29 364 966 364 965.65C364 965.29 364.29 965 364.64 965H390.36C390.71000000000004 965 391 965.29 391 965.65C391 966 390.71 966.29 390.36 966.29 " fill-opacity="0" fill="#ffffff" stroke-dasharray="0" stroke-linejoin="miter" stroke-linecap="butt" stroke-opacity="1" stroke="#4a90e2" stroke-miterlimit="50" stroke-width="3" transform="matrix(1,0,0,1,-338,-926)"></path></svg>