<svg id="SvgjsSvg1008" xmlns="http://www.w3.org/2000/svg" version="1.1" xmlns:xlink="http://www.w3.org/1999/xlink" xmlns:svgjs="http://svgjs.com/svgjs" width="66" height="66" viewBox="0 0 66 66"><title>Rectangle 703 Copy</title><desc>Created with Avocode.</desc><defs id="SvgjsDefs1009"><clipPath id="SvgjsClipPath1012"><path id="SvgjsPath1011" d="M184 736C184 728.26801 190.26801 722 198 722H236C243.73199 722 250 728.26801 250 736V774C250 781.73199 243.73199 788 236 788H198C190.26801 788 184 781.73199 184 774Z " fill="#ffffff"></path></clipPath></defs><path id="SvgjsPath1010" d="M184 736C184 728.26801 190.26801 722 198 722H236C243.73199 722 250 728.26801 250 736V774C250 781.73199 243.73199 788 236 788H198C190.26801 788 184 781.73199 184 774Z " fill-opacity="0" fill="#ffffff" stroke-dasharray="0" stroke-linejoin="miter" stroke-linecap="butt" stroke-opacity="1" stroke="#ffffff" stroke-miterlimit="50" stroke-width="4" clip-path="url(&quot;#SvgjsClipPath1012&quot;)" transform="matrix(1,0,0,1,-184,-722)"></path><path id="SvgjsPath1013" d="M227.74 755.07H206.53C206.24 755.07 206 754.83 206 754.5300000000001C206 754.2400000000001 206.24 754.0000000000001 206.53 754.0000000000001H227.74C228.04000000000002 754.0000000000001 228.28 754.2400000000001 228.28 754.5300000000001C228.28 754.83 228.04 755.07 227.74 755.07 " fill-opacity="0" fill="#ffffff" stroke-dasharray="0" stroke-linejoin="miter" stroke-linecap="butt" stroke-opacity="1" stroke="#ffffff" stroke-miterlimit="50" stroke-width="1" transform="matrix(1,0,0,1,-184,-722)"></path></svg>