<svg id="SvgjsSvg1027" xmlns="http://www.w3.org/2000/svg" version="1.1" xmlns:xlink="http://www.w3.org/1999/xlink" xmlns:svgjs="http://svgjs.com/svgjs" width="40" height="43" viewBox="0 0 40 43"><title>Shape</title><desc>Created with Avocode.</desc><defs id="SvgjsDefs1028"></defs><path id="SvgjsPath1029" d="M153.94 280C150.32 283.33 145.46 285.36 140.10999999999999 285.36C138.35 285.36 136.64999999999998 285.14 135.01999999999998 284.73C135.01 285.17 134.99999999999997 285.61 134.99999999999997 286.05C134.99999999999997 300.46000000000004 142.62999999999997 313.11 154.12999999999997 320.33000000000004C165.63999999999996 313.11 173.26999999999998 300.46000000000004 173.26999999999998 286.05000000000007C173.26999999999998 285.57000000000005 173.26 285.1000000000001 173.23999999999998 284.63000000000005C171.49999999999997 285.11000000000007 169.65999999999997 285.36000000000007 167.76 285.36000000000007C162.42 285.36000000000007 157.56 283.3300000000001 153.94 280.00000000000006Z " fill="#cbf3cb" fill-opacity="1" transform="matrix(1,0,0,1,-134,-278)"></path><path id="SvgjsPath1030" d="M173.94 284.43C173.93 284.18 173.8 283.94 173.59 283.79C173.38 283.64000000000004 173.11 283.59000000000003 172.86 283.66C171.16000000000003 284.13000000000005 169.4 284.36 167.62 284.36C162.68 284.36 157.98000000000002 282.54 154.37 279.23C154.04 278.92 153.54 278.92 153.21 279.23C149.6 282.54 144.9 284.36 139.96 284.36C138.31 284.36 136.67000000000002 284.16 135.09 283.76C134.84 283.69 134.57 283.74 134.36 283.9C134.16000000000003 284.04999999999995 134.03 284.28 134.02 284.53999999999996C134.01000000000002 284.98999999999995 134 285.43999999999994 134 285.89C134 292.97999999999996 135.85 299.97999999999996 139.36 306.13C142.76000000000002 312.09 147.66000000000003 317.19 153.53 320.87C153.67 320.96 153.82 321 153.98 321C154.14 321 154.29999999999998 320.96 154.44 320.87C160.31 317.19 165.21 312.09000000000003 168.60999999999999 306.13C172.10999999999999 299.98 173.97 292.98 173.97 285.89C173.97 285.41999999999996 173.96 284.93 173.94 284.43ZM153.98 319.17C142.53 311.77000000000004 135.7 299.37 135.7 285.89C135.7 285.8 135.7 285.71 135.7 285.61C137.1 285.89 138.53 286.04 139.95999999999998 286.04C145.07 286.04 149.95 284.24 153.79 280.96000000000004C157.63 284.24 162.51 286.04 167.60999999999999 286.04C169.17999999999998 286.04 170.73999999999998 285.87 172.26 285.53000000000003C172.26 285.65000000000003 172.26999999999998 285.77000000000004 172.26999999999998 285.89000000000004C172.26999999999998 299.37000000000006 165.43999999999997 311.77000000000004 153.98 319.1700000000001Z " fill="#2c982c" fill-opacity="1" transform="matrix(1,0,0,1,-134,-278)"></path><path id="SvgjsPath1031" d="M147.67 287.57C147.51999999999998 287.13 147.04 286.9 146.58999999999997 287.04C144.42999999999998 287.75 142.17 288.07 139.87999999999997 288C139.40999999999997 287.99 139.00999999999996 288.35 138.99999999999997 288.81C138.98999999999998 289.27 139.35999999999999 289.66 139.81999999999996 289.67C140.04999999999995 289.68 140.26999999999995 289.68 140.48999999999995 289.68C142.75999999999996 289.68 144.98999999999995 289.33 147.12999999999994 288.63C147.56999999999994 288.49 147.80999999999995 288.01 147.66999999999993 287.57Z " fill="#2c982c" fill-opacity="1" transform="matrix(1,0,0,1,-134,-278)"></path><path id="SvgjsPath1032" d="M150.85 286.89C150.98999999999998 286.89 151.13 286.86 151.26 286.78999999999996C151.97 286.40999999999997 152.67 285.97999999999996 153.34 285.52C153.72 285.25 153.81 284.72999999999996 153.54 284.34999999999997C153.26999999999998 283.97999999999996 152.73999999999998 283.89 152.35999999999999 284.15C151.74999999999997 284.58 151.1 284.96999999999997 150.44 285.32C150.03 285.54 149.88 286.05 150.1 286.46C150.26 286.73999999999995 150.54999999999998 286.89 150.85 286.89Z " fill="#2c982c" fill-opacity="1" transform="matrix(1,0,0,1,-134,-278)"></path><path id="SvgjsPath1033" d="M163.55 292.25L152.19 303.41L146.45 297.77000000000004C146.11999999999998 297.44000000000005 145.57999999999998 297.44000000000005 145.25 297.77000000000004C144.92 298.09000000000003 144.92 298.62000000000006 145.25 298.95000000000005L151.59 305.18000000000006C151.76 305.3500000000001 151.97 305.43000000000006 152.19 305.43000000000006C152.41 305.43000000000006 152.63 305.3500000000001 152.79 305.18000000000006L164.75 293.43000000000006C165.08 293.1000000000001 165.08 292.57000000000005 164.75 292.24000000000007C164.42 291.9200000000001 163.88 291.9200000000001 163.55 292.25000000000006Z " fill="#2c982c" fill-opacity="1" transform="matrix(1,0,0,1,-134,-278)"></path></svg>