<svg id="SvgjsSvg1014" xmlns="http://www.w3.org/2000/svg" version="1.1" xmlns:xlink="http://www.w3.org/1999/xlink" xmlns:svgjs="http://svgjs.com/svgjs" width="66" height="66" viewBox="0 0 66 66"><title>Rectangle 703</title><desc>Created with Avocode.</desc><defs id="SvgjsDefs1015"><clipPath id="SvgjsClipPath1018"><path id="SvgjsPath1017" d="M390 736C390 728.26801 396.26801 722 404 722H442C449.73199 722 456 728.26801 456 736V774C456 781.73199 449.73199 788 442 788H404C396.26801 788 390 781.73199 390 774Z " fill="#ffffff"></path></clipPath></defs><path id="SvgjsPath1016" d="M390 736C390 728.26801 396.26801 722 404 722H442C449.73199 722 456 728.26801 456 736V774C456 781.73199 449.73199 788 442 788H404C396.26801 788 390 781.73199 390 774Z " fill-opacity="0" fill="#ffffff" stroke-dasharray="0" stroke-linejoin="miter" stroke-linecap="butt" stroke-opacity="1" stroke="#ffffff" stroke-miterlimit="50" stroke-width="4" clip-path="url(&quot;#SvgjsClipPath1018&quot;)" transform="matrix(1,0,0,1,-390,-722)"></path><path id="SvgjsPath1019" d="M432.33 754.43H423.37V745.4699999999999C423.37 745.2099999999999 423.16 744.9999999999999 422.9 744.9999999999999C422.64 744.9999999999999 422.42999999999995 745.2099999999999 422.42999999999995 745.4699999999999V754.43H413.46999999999997C413.21 754.43 412.99999999999994 754.64 412.99999999999994 754.9C412.99999999999994 755.16 413.2099999999999 755.37 413.46999999999997 755.37H422.42999999999995V764.33C422.42999999999995 764.59 422.63999999999993 764.8000000000001 422.9 764.8000000000001C423.15999999999997 764.8000000000001 423.37 764.59 423.37 764.33V755.37H432.33C432.59 755.37 432.8 755.16 432.8 754.9C432.8 754.64 432.59000000000003 754.43 432.33 754.43 " fill-opacity="0" fill="#ffffff" stroke-dasharray="0" stroke-linejoin="miter" stroke-linecap="butt" stroke-opacity="1" stroke="#ffffff" stroke-miterlimit="50" stroke-width="1" transform="matrix(1,0,0,1,-390,-722)"></path></svg>