<svg id="SvgjsSvg1025" xmlns="http://www.w3.org/2000/svg" version="1.1" xmlns:xlink="http://www.w3.org/1999/xlink" xmlns:svgjs="http://svgjs.com/svgjs" width="80" height="80" viewBox="0 0 80 80"><title>Plus</title><desc>Created with Avocode.</desc><defs id="SvgjsDefs1026"><clipPath id="SvgjsClipPath1030"><path id="SvgjsPath1029" d="M524 940C524 932.26801 530.26801 926 538 926H590C597.73199 926 604 932.26801 604 940V992C604 999.73199 597.73199 1006 590 1006H538C530.26801 1006 524 999.73199 524 992Z " fill="#ffffff"></path></clipPath></defs><path id="SvgjsPath1027" d="M575.43 965.43H564.5699999999999V954.5699999999999C564.5699999999999 954.26 564.3199999999999 953.9999999999999 563.9999999999999 953.9999999999999C563.6799999999998 953.9999999999999 563.4299999999998 954.2599999999999 563.4299999999998 954.5699999999999V965.43H552.5699999999998C552.2599999999999 965.43 551.9999999999998 965.68 551.9999999999998 966C551.9999999999998 966.32 552.2599999999998 966.57 552.5699999999998 966.57H563.4299999999998V977.4300000000001C563.4299999999998 977.74 563.6799999999998 978.0000000000001 563.9999999999999 978.0000000000001C564.3199999999999 978.0000000000001 564.5699999999999 977.7400000000001 564.5699999999999 977.4300000000001V966.57H575.43C575.7399999999999 966.57 576 966.32 576 966C576 965.68 575.74 965.43 575.43 965.43 " fill-opacity="0" fill="#ffffff" stroke-dasharray="0" stroke-linejoin="miter" stroke-linecap="butt" stroke-opacity="1" stroke="#4a90e2" stroke-miterlimit="50" stroke-width="3" transform="matrix(1,0,0,1,-524,-926)"></path><path id="SvgjsPath1028" d="M524 940C524 932.26801 530.26801 926 538 926H590C597.73199 926 604 932.26801 604 940V992C604 999.73199 597.73199 1006 590 1006H538C530.26801 1006 524 999.73199 524 992Z " fill-opacity="0" fill="#ffffff" stroke-dasharray="0" stroke-linejoin="miter" stroke-linecap="butt" stroke-opacity="1" stroke="#4a90e2" stroke-miterlimit="50" stroke-width="4" clip-path="url(&quot;#SvgjsClipPath1030&quot;)" transform="matrix(1,0,0,1,-524,-926)"></path></svg>