<svg id="SvgjsSvg1018" xmlns="http://www.w3.org/2000/svg" version="1.1" xmlns:xlink="http://www.w3.org/1999/xlink" xmlns:svgjs="http://svgjs.com/svgjs" width="28" height="28" viewBox="0 0 28 28"><title>Search</title><desc>Created with Avocode.</desc><defs id="SvgjsDefs1019"></defs><path id="SvgjsPath1020" d="M132.44 196.56C134.2 194.59 135.29 192 135.29 189.14000000000001C135.29 182.99 130.29999999999998 178 124.13999999999999 178C117.98999999999998 178 112.99999999999999 182.99 112.99999999999999 189.14C112.99999999999999 195.29999999999998 117.98999999999998 200.29 124.13999999999999 200.29C126.99999999999999 200.29 129.58999999999997 199.2 131.55999999999997 197.44L137.93999999999997 203.82C138.05999999999997 203.94 138.21999999999997 204 138.37999999999997 204C138.53999999999996 204 138.69999999999996 203.94 138.81999999999996 203.82C139.05999999999997 203.57999999999998 139.05999999999997 203.19 138.81999999999996 202.94ZM124.14 179.24C129.6 179.24 134.05 183.68 134.05 189.14000000000001C134.05 194.60000000000002 129.60000000000002 199.05 124.14000000000001 199.05C118.68000000000002 199.05 114.24000000000001 194.60000000000002 114.24000000000001 189.14000000000001C114.24000000000001 183.68 118.68 179.24 124.14000000000001 179.24Z " fill="#303838" fill-opacity="1" transform="matrix(1,0,0,1,-112,-177)"></path><path id="SvgjsPath1021" d="M132.44 196.56C134.2 194.59 135.29 192 135.29 189.14000000000001C135.29 182.99 130.29999999999998 178 124.13999999999999 178C117.98999999999998 178 112.99999999999999 182.99 112.99999999999999 189.14C112.99999999999999 195.29999999999998 117.98999999999998 200.29 124.13999999999999 200.29C126.99999999999999 200.29 129.58999999999997 199.2 131.55999999999997 197.44L137.93999999999997 203.82C138.05999999999997 203.94 138.21999999999997 204 138.37999999999997 204C138.53999999999996 204 138.69999999999996 203.94 138.81999999999996 203.82C139.05999999999997 203.57999999999998 139.05999999999997 203.19 138.81999999999996 202.94ZM124.14 179.24C129.6 179.24 134.05 183.68 134.05 189.14000000000001C134.05 194.60000000000002 129.60000000000002 199.05 124.14000000000001 199.05C118.68000000000002 199.05 114.24000000000001 194.60000000000002 114.24000000000001 189.14000000000001C114.24000000000001 183.68 118.68 179.24 124.14000000000001 179.24Z " fill-opacity="0" fill="#ffffff" stroke-dasharray="0" stroke-linejoin="miter" stroke-linecap="butt" stroke-opacity="1" stroke="#4a4a4a" stroke-miterlimit="50" stroke-width="2" transform="matrix(1,0,0,1,-112,-177)"></path></svg>