<svg id="SvgjsSvg1014" xmlns="http://www.w3.org/2000/svg" version="1.1" xmlns:xlink="http://www.w3.org/1999/xlink" xmlns:svgjs="http://svgjs.com/svgjs" width="28" height="28" viewBox="0 0 28 28"><title>Search</title><desc>Created with Avocode.</desc><defs id="SvgjsDefs1015"></defs><path id="SvgjsPath1016" d="M134.44 251.56C136.2 249.59 137.29 247 137.29 244.14000000000001C137.29 237.99 132.29999999999998 233 126.13999999999999 233C119.98999999999998 233 114.99999999999999 237.99 114.99999999999999 244.14C114.99999999999999 250.29999999999998 119.98999999999998 255.29 126.13999999999999 255.29C129 255.29 131.58999999999997 254.2 133.55999999999997 252.44L139.93999999999997 258.82C140.05999999999997 258.94 140.21999999999997 259 140.37999999999997 259C140.53999999999996 259 140.69999999999996 258.94 140.81999999999996 258.82C141.05999999999997 258.58 141.05999999999997 258.19 140.81999999999996 257.94ZM126.14 234.24C131.6 234.24 136.05 238.68 136.05 244.14000000000001C136.05 249.60000000000002 131.60000000000002 254.05 126.14000000000001 254.05C120.68000000000002 254.05 116.24000000000001 249.60000000000002 116.24000000000001 244.14000000000001C116.24000000000001 238.68 120.68 234.24 126.14000000000001 234.24Z " fill="#303838" fill-opacity="1" transform="matrix(1,0,0,1,-114,-232)"></path><path id="SvgjsPath1017" d="M134.44 251.56C136.2 249.59 137.29 247 137.29 244.14000000000001C137.29 237.99 132.29999999999998 233 126.13999999999999 233C119.98999999999998 233 114.99999999999999 237.99 114.99999999999999 244.14C114.99999999999999 250.29999999999998 119.98999999999998 255.29 126.13999999999999 255.29C129 255.29 131.58999999999997 254.2 133.55999999999997 252.44L139.93999999999997 258.82C140.05999999999997 258.94 140.21999999999997 259 140.37999999999997 259C140.53999999999996 259 140.69999999999996 258.94 140.81999999999996 258.82C141.05999999999997 258.58 141.05999999999997 258.19 140.81999999999996 257.94ZM126.14 234.24C131.6 234.24 136.05 238.68 136.05 244.14000000000001C136.05 249.60000000000002 131.60000000000002 254.05 126.14000000000001 254.05C120.68000000000002 254.05 116.24000000000001 249.60000000000002 116.24000000000001 244.14000000000001C116.24000000000001 238.68 120.68 234.24 126.14000000000001 234.24Z " fill-opacity="0" fill="#ffffff" stroke-dasharray="0" stroke-linejoin="miter" stroke-linecap="butt" stroke-opacity="1" stroke="#979797" stroke-miterlimit="50" stroke-width="2" transform="matrix(1,0,0,1,-114,-232)"></path></svg>