<svg id="SvgjsSvg1034" xmlns="http://www.w3.org/2000/svg" version="1.1" xmlns:xlink="http://www.w3.org/1999/xlink" xmlns:svgjs="http://svgjs.com/svgjs" width="45" height="33" viewBox="0 0 45 33"><title>Shape</title><desc>Created with Avocode.</desc><defs id="SvgjsDefs1035"></defs><path id="SvgjsPath1036" d="M297.99 204.46H259.39C258.05 204.46 257 203.41 257 202.06V175.4C257 174.05 258.05 173 259.39 173H297.99C299.34000000000003 173 300.38 174.05 300.38 175.4V202.06C300.38 203.41 299.34 204.46 297.99 204.46Z " fill="#ffffff" fill-opacity="1" transform="matrix(1,0,0,1,-256,-172)"></path><path id="SvgjsPath1037" d="M297.74 204.95H259.14C257.41999999999996 204.95 256 203.53 256 201.81V175.15C256 173.42000000000002 257.42 172 259.14 172H297.74C299.46000000000004 172 300.88 173.42 300.88 175.15V201.81C300.88 203.53 299.46 204.95 297.74 204.95ZM257.5 175.15V201.81C257.5 202.71 258.24 203.46 259.14 203.46H297.74C298.64 203.46 299.38 202.71 299.38 201.81V175.15C299.38 174.25 298.64 173.5 297.74 173.5H259.14C258.24 173.5 257.5 174.25 257.5 175.15Z " fill="#0096e6" fill-opacity="1" transform="matrix(1,0,0,1,-256,-172)"></path><path id="SvgjsPath1038" d="M261 194H267.73V198.49H261Z " fill="#d0e8f9" fill-opacity="1" transform="matrix(1,0,0,1,-256,-172)"></path><path id="SvgjsPath1039" d="M267.48 199.99H260.75C260.3 199.99 260 199.69 260 199.24V194.75C260 194.3 260.3 194 260.75 194H267.48C267.93 194 268.23 194.3 268.23 194.75V199.24C268.23 199.69 267.93 199.99 267.48 199.99ZM261.5 198.49H266.73V195.5H261.5Z " fill="#0096e6" fill-opacity="1" transform="matrix(1,0,0,1,-256,-172)"></path><path id="SvgjsPath1040" d="M271 194H277.73V198.49H271Z " fill="#d0e8f9" fill-opacity="1" transform="matrix(1,0,0,1,-256,-172)"></path><path id="SvgjsPath1041" d="M277.48 199.99H270.75C270.3 199.99 270 199.69 270 199.24V194.75C270 194.3 270.3 194 270.75 194H277.48C277.93 194 278.23 194.3 278.23 194.75V199.24C278.23 199.69 277.93 199.99 277.48 199.99ZM271.5 198.49H276.73V195.5H271.5Z " fill="#0096e6" fill-opacity="1" transform="matrix(1,0,0,1,-256,-172)"></path><path id="SvgjsPath1042" d="M280 194H286.73V198.49H280Z " fill="#d0e8f9" fill-opacity="1" transform="matrix(1,0,0,1,-256,-172)"></path><path id="SvgjsPath1043" d="M287.48 199.99H280.75C280.3 199.99 280 199.69 280 199.24V194.75C280 194.3 280.3 194 280.75 194H287.48C287.93 194 288.23 194.3 288.23 194.75V199.24C288.23 199.69 287.93 199.99 287.48 199.99ZM281.5 198.49H286.73V195.5H281.5Z " fill="#0096e6" fill-opacity="1" transform="matrix(1,0,0,1,-256,-172)"></path><path id="SvgjsPath1044" d="M290 194H296.73V198.49H290Z " fill="#d0e8f9" fill-opacity="1" transform="matrix(1,0,0,1,-256,-172)"></path><path id="SvgjsPath1045" d="M296.48 199.99H289.75C289.3 199.99 289 199.69 289 199.24V194.75C289 194.3 289.3 194 289.75 194H296.48C296.93 194 297.23 194.3 297.23 194.75V199.24C297.23 199.69 296.93 199.99 296.48 199.99ZM290.5 198.49H295.73V195.5H290.5Z " fill="#0096e6" fill-opacity="1" transform="matrix(1,0,0,1,-256,-172)"></path><path id="SvgjsPath1046" d="M272 185.99H261.97C261.45000000000005 185.99 261 185.54000000000002 261 185.01000000000002V177.97000000000003C261 177.45000000000002 261.45 177.00000000000003 261.97 177.00000000000003H272.07000000000005C272.52000000000004 177.00000000000003 272.97 177.45000000000002 272.97 177.97000000000003V185.09000000000003C272.97 185.54000000000002 272.52000000000004 185.99000000000004 272 185.99000000000004Z " fill="#d0e8f9" fill-opacity="1" transform="matrix(1,0,0,1,-256,-172)"></path><path id="SvgjsPath1047" d="M271.74 187.49H261.72C260.75 187.49 260 186.74 260 185.76000000000002V178.72000000000003C260 177.75000000000003 260.75 177.00000000000003 261.72 177.00000000000003H271.82000000000005C272.72 177.00000000000003 273.46000000000004 177.75000000000003 273.46000000000004 178.72000000000003V185.84000000000003C273.46000000000004 186.74000000000004 272.72 187.49000000000004 271.74 187.49000000000004ZM261.5 178.72V185.84C261.5 185.91 261.57 185.99 261.72 185.99H271.82000000000005C271.89000000000004 185.99 272.0400000000001 185.91 272.0400000000001 185.76000000000002V178.72000000000003C271.9700000000001 178.57000000000002 271.8900000000001 178.50000000000003 271.74000000000007 178.50000000000003H261.7200000000001C261.5700000000001 178.50000000000003 261.50000000000006 178.57000000000002 261.50000000000006 178.72000000000003Z " fill="#0096e6" fill-opacity="1" transform="matrix(1,0,0,1,-256,-172)"></path><path id="SvgjsPath1048" d="M267.26 187.49H266.13C265.24 187.49 264.49 186.74 264.49 185.76000000000002V184.49H260.75C260.3 184.49 260 184.19 260 183.74C260 183.29000000000002 260.3 182.99 260.75 182.99H264.49V181.49H260.75C260.3 181.49 260 181.19 260 180.74C260 180.3 260.3 180 260.75 180H264.49V178.72C264.49 177.75 265.24 177 266.21000000000004 177H271.82000000000005C272.72 177 273.46000000000004 177.75 273.46000000000004 178.72V179.85C273.46000000000004 180.73999999999998 272.72 181.57 271.74 181.57H269.13C269.05 181.57 268.9 181.64 268.9 181.79V182.98999999999998H272.64C273.09 182.98999999999998 273.39 183.29 273.39 183.73999999999998C273.39 184.18999999999997 273.09 184.48999999999998 272.64 184.48999999999998H268.9V185.76C268.97999999999996 186.73999999999998 268.22999999999996 187.48999999999998 267.26 187.48999999999998ZM265.98 178.72V185.84C265.98 185.91 266.06 186.06 266.21000000000004 186.06H267.33000000000004C267.41 186.06 267.55000000000007 185.99 267.55000000000007 185.84V181.72C267.4800000000001 180.74 268.2300000000001 180 269.20000000000005 180H271.82000000000005C271.89000000000004 180 271.97 179.92 271.97 179.77V178.72C271.97 178.57 271.89000000000004 178.5 271.74 178.5H266.21000000000004C266.06000000000006 178.5 265.98 178.57 265.98 178.72ZM293.66 182.24H292.16C291.72 182.24 291.42 181.94 291.42 181.49C291.42 181.04000000000002 291.72 180.74 292.16 180.74H293.66C294.11 180.74 294.41 181.04000000000002 294.41 181.49C294.41 181.94 294.11 182.24 293.66 182.24ZM289.17 182.24H288.42C287.98 182.24 287.68 181.94 287.68 181.49C287.68 181.04000000000002 287.98 180.74 288.42 180.74H289.17C289.62 180.74 289.92 181.04000000000002 289.92 181.49C289.92 181.94 289.62 182.24 289.17 182.24ZM285.43 182.24H283.94C283.49 182.24 283.19 181.94 283.19 181.49C283.19 181.04000000000002 283.49 180.74 283.94 180.74H285.43C285.88 180.74 286.18 181.04000000000002 286.18 181.49C286.18 181.94 285.88 182.24 285.43 182.24ZM280.94 182.24H280.2C279.75 182.24 279.45 181.94 279.45 181.49C279.45 181.04000000000002 279.75 180.74 280.2 180.74H280.94C281.39 180.74 281.69 181.04000000000002 281.69 181.49C281.69 181.94 281.39 182.24 280.94 182.24ZM296.65 178.5H289.91999999999996C289.46999999999997 178.5 289.16999999999996 178.2 289.16999999999996 177.75C289.16999999999996 177.3 289.46999999999997 177 289.91999999999996 177H296.65C297.09999999999997 177 297.4 177.3 297.4 177.75C297.4 178.2 297.09999999999997 178.5 296.65 178.5ZM287.68 177.75C287.68 177.3 287.38 177 286.93 177H280.2C279.75 177 279.45 177.3 279.45 177.75C279.45 178.2 279.75 178.5 280.2 178.5H286.93C287.38 178.5 287.68 178.2 287.68 177.75Z " fill="#0096e6" fill-opacity="1" transform="matrix(1,0,0,1,-256,-172)"></path></svg>