<svg id="SvgjsSvg1049" xmlns="http://www.w3.org/2000/svg" version="1.1" xmlns:xlink="http://www.w3.org/1999/xlink" xmlns:svgjs="http://svgjs.com/svgjs" width="52" height="32" viewBox="0 0 52 32"><title>Rectangle</title><desc>Created with Avocode.</desc><defs id="SvgjsDefs1050"></defs><path id="SvgjsPath1051" d="M329 453.58025C329 452.7075 329.7075 452 330.58025 452H379.41976C380.29251 452 381.00001 452.7075 381.00001 453.58025V482.41976C381.00001 483.29251 380.29251 484.00001 379.41976 484.00001H330.58025C329.7075 484.00001 329 483.29251 329 482.41976Z " fill="#ffffff" fill-opacity="1" transform="matrix(1,0,0,1,-329,-452)"></path><path id="SvgjsPath1052" d="M351 473.17L352.61 463H355.19L353.58 473.17H351 " fill="#26337a" fill-opacity="1" transform="matrix(1,0,0,1,-329,-452)"></path><path id="SvgjsPath1053" d="M362.74 463.43C362.23 463.22 361.43 463 360.43 463C357.88 463 356.08 464.38 356.07 466.36C356.05 467.82 357.34999999999997 468.64 358.33 469.12C359.33 469.62 359.66999999999996 469.94 359.66999999999996 470.38C359.65999999999997 471.06 358.85999999999996 471.38 358.11999999999995 471.38C357.09 471.38 356.53999999999996 471.21999999999997 355.68999999999994 470.84L355.35999999999996 470.67999999999995L354.99999999999994 472.9599999999999C355.59999999999997 473.2399999999999 356.71999999999997 473.4899999999999 357.86999999999995 473.49999999999994C360.5799999999999 473.49999999999994 362.34 472.13999999999993 362.35999999999996 470.0299999999999C362.36999999999995 468.8699999999999 361.68999999999994 467.9899999999999 360.19999999999993 467.25999999999993C359.29999999999995 466.7899999999999 358.73999999999995 466.47999999999996 358.74999999999994 465.99999999999994C358.74999999999994 465.5799999999999 359.21999999999997 465.11999999999995 360.22999999999996 465.11999999999995C361.06999999999994 465.10999999999996 361.67999999999995 465.30999999999995 362.15999999999997 465.5199999999999L362.39 465.62999999999994L362.74 463.42999999999995 " fill="#26337a" fill-opacity="1" transform="matrix(1,0,0,1,-329,-452)"></path><path id="SvgjsPath1054" d="M367.02 466.71C367.01 466.73999999999995 367.22999999999996 466.12 367.35999999999996 465.73999999999995L367.53999999999996 466.61999999999995C367.53999999999996 466.61999999999995 368.03 469.04999999999995 368.12999999999994 469.55999999999995C367.72999999999996 469.55999999999995 366.49999999999994 469.55999999999995 365.98999999999995 469.55999999999995C366.21 468.96999999999997 367.0199999999999 466.7099999999999 367.0199999999999 466.7099999999999ZM367.18 463C366.56 463 366.1 463.18 365.83 463.84L362 473.16999999999996H364.71C364.71 473.16999999999996 365.15 471.90999999999997 365.25 471.64C365.55 471.64 368.18 471.64 368.55 471.64C368.63 472 368.87 473.16999999999996 368.87 473.16999999999996H371.26L369.17 462.99999999999994Z " fill="#26337a" fill-opacity="1" transform="matrix(1,0,0,1,-329,-452)"></path><path id="SvgjsPath1055" d="M348.37 463L345.84000000000003 469.94L345.57000000000005 468.53C345.1 466.9 343.64000000000004 465.14 342.00000000000006 464.26L344.31000000000006 473.15999999999997L347.0400000000001 473.15L351.1000000000001 463H348.37000000000006 " fill="#26337a" fill-opacity="1" transform="matrix(1,0,0,1,-329,-452)"></path><path id="SvgjsPath1056" d="M344.19 463H340.03L340 463.21C343.24 464.04999999999995 345.38 466.09 346.27 468.53L345.35999999999996 463.85999999999996C345.21 463.21 344.74999999999994 463.02 344.18999999999994 462.99999999999994 " fill="#ed982d" fill-opacity="1" transform="matrix(1,0,0,1,-329,-452)"></path></svg>