<svg id="SvgjsSvg1057" xmlns="http://www.w3.org/2000/svg" version="1.1" xmlns:xlink="http://www.w3.org/1999/xlink" xmlns:svgjs="http://svgjs.com/svgjs" width="55" height="32" viewBox="0 0 55 32"><title>Rectangle</title><desc>Created with Avocode.</desc><defs id="SvgjsDefs1058"></defs><path id="SvgjsPath1059" d="M391 453.58025C391 452.7075 391.7075 452 392.58025 452H444.41976C445.29251 452 446.00001 452.7075 446.00001 453.58025V482.41976C446.00001 483.29251 445.29251 484.00001 444.41976 484.00001H392.58025C391.7075 484.00001 391 483.29251 391 482.41976Z " fill="#000066" fill-opacity="1" transform="matrix(1,0,0,1,-391,-452)"></path><path id="SvgjsPath1060" d="M421.42 468.41C421.42 474.16 416.63 478.82000000000005 410.71000000000004 478.82000000000005C404.8 478.82000000000005 400.00000000000006 474.16 400.00000000000006 468.41C400.00000000000006 462.66 404.80000000000007 458 410.71000000000004 458C416.63000000000005 458 421.42 462.66 421.42 468.41 " fill="#cc0000" fill-opacity="1" transform="matrix(1,0,0,1,-391,-452)"></path><path id="SvgjsPath1061" d="M425.47 458C422.70000000000005 458 420.18 459.02 418.28000000000003 460.69C417.89000000000004 461.04 417.53000000000003 461.4 417.20000000000005 461.8H419.36000000000007C419.6600000000001 462.15000000000003 419.93000000000006 462.51 420.18000000000006 462.90000000000003H416.38000000000005C416.15000000000003 463.25000000000006 415.95000000000005 463.62000000000006 415.76000000000005 464.00000000000006H420.80000000000007C420.9700000000001 464.36000000000007 421.12000000000006 464.7200000000001 421.25000000000006 465.1000000000001H415.31000000000006C415.19000000000005 465.4600000000001 415.08000000000004 465.8300000000001 415.00000000000006 466.2000000000001H421.56000000000006C421.7200000000001 466.9100000000001 421.80000000000007 467.6500000000001 421.80000000000007 468.4100000000001C421.80000000000007 469.56000000000006 421.61000000000007 470.68000000000006 421.25000000000006 471.7100000000001H415.31000000000006C415.44000000000005 472.0900000000001 415.59000000000003 472.4600000000001 415.76000000000005 472.8200000000001H420.80000000000007C420.61000000000007 473.2000000000001 420.4100000000001 473.5600000000001 420.18000000000006 473.92000000000013H416.38000000000005C416.63000000000005 474.3000000000001 416.90000000000003 474.67000000000013 417.20000000000005 475.02000000000015H419.36000000000007C419.0300000000001 475.41000000000014 418.6700000000001 475.78000000000014 418.2800000000001 476.1200000000002C420.18000000000006 477.8000000000002 422.7000000000001 478.82000000000016 425.4700000000001 478.82000000000016C431.3800000000001 478.82000000000016 436.18000000000006 474.16000000000014 436.18000000000006 468.41000000000014C436.18000000000006 462.66000000000014 431.38000000000005 458.0000000000001 425.4700000000001 458.0000000000001 " fill="#ff9900" fill-opacity="1" transform="matrix(1,0,0,1,-391,-452)"></path><path id="SvgjsPath1062" d="M408.12 469.46C407.46 469.46 407.12 469.68 407.12 470.10999999999996C407.12 470.37999999999994 407.29 470.54999999999995 407.54 470.54999999999995C408.01000000000005 470.54999999999995 408.36 470.10999999999996 408.38 469.47999999999996C408.25 469.46 408.2 469.46 408.12 469.46ZM408.26 471.39L408.28 470.94C407.98999999999995 471.3 407.59 471.46 407.05999999999995 471.46C406.42999999999995 471.46 405.99999999999994 470.98999999999995 405.99999999999994 470.28999999999996C405.99999999999994 469.24999999999994 406.74999999999994 468.64 408.03999999999996 468.64C408.16999999999996 468.64 408.34 468.65 408.52 468.66999999999996C408.54999999999995 468.53 408.56 468.46999999999997 408.56 468.39C408.56 468.11 408.36 468 407.82 468C407.25 467.99 406.78 468.13 406.58 468.19C406.59999999999997 468.12 406.75 467.23 406.75 467.23C407.32 467.06 407.71 467 408.14 467C409.14 467 409.65999999999997 467.44 409.65999999999997 468.26C409.66999999999996 468.48 409.63 468.75 409.57 469.11C409.46999999999997 469.73 409.25 471.06 409.21999999999997 471.39C409.07 471.39 408.26 471.39 408.26 471.39Z " fill="#000066" fill-opacity="1" transform="matrix(1,0,0,1,-391,-452)"></path><path id="SvgjsPath1063" d="M405.66 471.28H404.5L405.17 467.21999999999997L403.68 471.28H402.89L402.78999999999996 467.23999999999995L402.09 471.28H401L401.91 466H403.58000000000004L403.68000000000006 468.96L404.70000000000005 466H406.56000000000006L405.6600000000001 471.28 " fill="#000066" fill-opacity="1" transform="matrix(1,0,0,1,-391,-452)"></path><path id="SvgjsPath1064" d="M427.12 469.46C426.46 469.46 426.12 469.68 426.12 470.10999999999996C426.12 470.37999999999994 426.29 470.54999999999995 426.54 470.54999999999995C427.01000000000005 470.54999999999995 427.36 470.10999999999996 427.38 469.47999999999996C427.25 469.46 427.2 469.46 427.12 469.46ZM427.26 471.39L427.28 470.94C426.98999999999995 471.3 426.59 471.46 426.05999999999995 471.46C425.42999999999995 471.46 424.99999999999994 470.98999999999995 424.99999999999994 470.28999999999996C424.99999999999994 469.24999999999994 425.74999999999994 468.64 427.03999999999996 468.64C427.16999999999996 468.64 427.34 468.65 427.51 468.66999999999996C427.55 468.53 427.56 468.46999999999997 427.56 468.39C427.56 468.11 427.36 468 426.81 468C426.25 467.99 425.78000000000003 468.13 425.58 468.19C425.59999999999997 468.12 425.75 467.23 425.75 467.23C426.32 467.06 426.71 467 427.14 467C428.14 467 428.65999999999997 467.44 428.65999999999997 468.26C428.65999999999997 468.48 428.63 468.75 428.57 469.11C428.46999999999997 469.73 428.25 471.06 428.21999999999997 471.39C428.07 471.39 427.26 471.39 427.26 471.39Z " fill="#000066" fill-opacity="1" transform="matrix(1,0,0,1,-391,-452)"></path><path id="SvgjsPath1065" d="M414.75 470.88C414.44 470.98 414.19 471.02 413.92 471.02C413.32 471.02 413 470.69 413 470.07C412.99 469.88 413.09 469.39 413.16 468.93C413.23 468.53000000000003 413.66 466 413.66 466H414.82000000000005L414.68000000000006 466.65H415.38000000000005L415.2300000000001 467.67999999999995H414.5200000000001C414.3900000000001 468.49999999999994 414.2000000000001 469.5199999999999 414.2000000000001 469.65C414.2000000000001 469.87 414.3200000000001 469.96999999999997 414.6000000000001 469.96999999999997C414.7300000000001 469.96999999999997 414.8300000000001 469.96 414.9100000000001 469.92999999999995L414.75000000000006 470.87999999999994 " fill="#000066" fill-opacity="1" transform="matrix(1,0,0,1,-391,-452)"></path><path id="SvgjsPath1066" d="M416.97 471.46C415.67 471.46 415 470.81 415 469.54999999999995C415 468.0799999999999 415.86 466.99999999999994 417.02 466.99999999999994C417.97999999999996 466.99999999999994 418.58 467.59999999999997 418.58 468.54999999999995C418.58 468.86999999999995 418.53999999999996 469.17999999999995 418.44 469.60999999999996H416.14C416.06 470.22999999999996 416.46999999999997 470.48999999999995 417.15 470.48999999999995C417.56 470.48999999999995 417.92999999999995 470.40999999999997 418.34999999999997 470.21999999999997L418.15 471.28999999999996C417.76 471.40999999999997 417.37 471.46 416.96999999999997 471.46ZM416.97 467.98C416.6 467.98 416.34000000000003 468.25 416.23 468.74H417.5C417.51 468.65000000000003 417.63 467.98 416.97 467.98Z " fill="#000066" fill-opacity="1" transform="matrix(1,0,0,1,-391,-452)"></path><path id="SvgjsPath1067" d="M410.44 468.45C410.44 469 410.71 469.37 411.33 469.65C411.8 469.87 411.87 469.92999999999995 411.87 470.13C411.87 470.39 411.66 470.51 411.2 470.51C410.84999999999997 470.51 410.53 470.46 410.15999999999997 470.34C410.15999999999997 470.34 410.01 471.28999999999996 409.99999999999994 471.34C410.25999999999993 471.39 410.49999999999994 471.44 411.2099999999999 471.46C412.43999999999994 471.46 412.99999999999994 471.01 412.99999999999994 470.03C412.99999999999994 469.44 412.7699999999999 469.09 412.17999999999995 468.83C411.69999999999993 468.60999999999996 411.63999999999993 468.57 411.63999999999993 468.37C411.63999999999993 468.13 411.8299999999999 468.01 412.2099999999999 468.01C412.43999999999994 468.01 412.74999999999994 468.03999999999996 413.0399999999999 468.08L413.2099999999999 467.08C412.9099999999999 467.03999999999996 412.44999999999993 467 412.18999999999994 467C410.88999999999993 467 410.43999999999994 467.66 410.43999999999994 468.45 " fill="#000066" fill-opacity="1" transform="matrix(1,0,0,1,-391,-452)"></path><path id="SvgjsPath1068" d="M424.23 467.31C424.56 467.31 424.86 467.39 425.27000000000004 467.59L425.46000000000004 466.45C425.29 466.38 424.69000000000005 466 424.18000000000006 466C423.4100000000001 466 422.75000000000006 466.38 422.2900000000001 466.99C421.61000000000007 466.78000000000003 421.3300000000001 467.22 420.99000000000007 467.65000000000003L420.69000000000005 467.72C420.71000000000004 467.58000000000004 420.7300000000001 467.44000000000005 420.7300000000001 467.29H419.6600000000001C419.5100000000001 468.62 419.2600000000001 469.97 419.05000000000007 471.29L419.00000000000006 471.58000000000004H420.1600000000001C420.36000000000007 470.36 420.4600000000001 469.57000000000005 420.5300000000001 469.04L420.9700000000001 468.81C421.0300000000001 468.57 421.24000000000007 468.49 421.6500000000001 468.5C421.5900000000001 468.78 421.5600000000001 469.07 421.5600000000001 469.38C421.5600000000001 470.78 422.35000000000014 471.65999999999997 423.60000000000014 471.65999999999997C423.92000000000013 471.65999999999997 424.20000000000016 471.61999999999995 424.6200000000001 471.49999999999994L424.8300000000001 470.29999999999995C424.4400000000001 470.47999999999996 424.1300000000001 470.56999999999994 423.8400000000001 470.56999999999994C423.1600000000001 470.56999999999994 422.7600000000001 470.0899999999999 422.7600000000001 469.2799999999999C422.7600000000001 468.1199999999999 423.3600000000001 467.3099999999999 424.23000000000013 467.3099999999999 " fill="#000066" fill-opacity="1" transform="matrix(1,0,0,1,-391,-452)"></path><path id="SvgjsPath1069" d="M433.25 467.53C432.93 467.11999999999995 432.59 466.82 432.14 466.82C431.55 466.82 431.02 467.26 430.66999999999996 467.89C430.17999999999995 467.78999999999996 429.67999999999995 467.63 429.67999999999995 467.63C429.71999999999997 467.28 429.72999999999996 467.06 429.72999999999996 466.99H428.65999999999997C428.51 468.32 428.26 469.66 428.04999999999995 470.99L427.99999999999994 471.28000000000003H429.15999999999997C429.32 470.29 429.43999999999994 469.46000000000004 429.53 468.81C429.92999999999995 468.46 430.13 468.16 430.53 468.18C430.34999999999997 468.6 430.25 469.08 430.25 469.57C430.25 470.65 430.8 471.34999999999997 431.65 471.34999999999997C432.08 471.34999999999997 432.4 471.21 432.71999999999997 470.87999999999994L432.66999999999996 471.2799999999999H433.77L434.65 465.99999999999994H433.51ZM431.46 469.44C431.46 468.6 431.83 468 432.35999999999996 468C432.75999999999993 468 432.96999999999997 468.29 432.96999999999997 468.84C432.96999999999997 469.69 432.59 470.28999999999996 432.04999999999995 470.28999999999996C431.65999999999997 470.28999999999996 431.46 469.99999999999994 431.46 469.43999999999994Z " fill="#000066" fill-opacity="1" transform="matrix(1,0,0,1,-391,-452)"></path><path id="SvgjsPath1070" d="M405.66 471.28H404.5L405.17 467.21999999999997L403.68 471.28H402.89L402.78999999999996 467.23999999999995L402.09 471.28H401L401.91 466H403.58000000000004L403.63000000000005 469.27L404.76000000000005 466H406.56000000000006L405.6600000000001 471.28 " fill="#ffffff" fill-opacity="1" transform="matrix(1,0,0,1,-391,-452)"></path><path id="SvgjsPath1071" d="M409.12 469.46C408.46 469.46 408.12 469.68 408.12 470.10999999999996C408.12 470.37999999999994 408.29 470.54999999999995 408.54 470.54999999999995C409.01000000000005 470.54999999999995 409.36 470.10999999999996 409.38 469.47999999999996C409.25 469.46 409.2 469.46 409.12 469.46ZM409.26 471.39L409.28 470.94C408.98999999999995 471.3 408.59 471.46 408.05999999999995 471.46C407.42999999999995 471.46 406.99999999999994 470.98999999999995 406.99999999999994 470.28999999999996C406.99999999999994 469.23999999999995 407.74999999999994 468.64 409.03999999999996 468.64C409.16999999999996 468.64 409.34 468.65 409.52 468.66999999999996C409.54999999999995 468.53 409.56 468.46999999999997 409.56 468.39C409.56 468.11 409.36 468 408.82 468C408.25 467.99 407.78 468.13 407.58 468.19C407.59999999999997 468.12 407.75 467.23 407.75 467.23C408.32 467.06 408.71 467 409.14 467C410.14 467 410.65999999999997 467.44 410.65999999999997 468.26C410.66999999999996 468.48 410.63 468.75 410.57 469.11C410.46999999999997 469.73 410.25 471.07 410.21999999999997 471.39C410.07 471.39 409.26 471.39 409.26 471.39Z " fill="#ffffff" fill-opacity="1" transform="matrix(1,0,0,1,-391,-452)"></path><path id="SvgjsPath1072" d="M424.9 466.27L424.71 467.41999999999996C424.28999999999996 467.21999999999997 423.98999999999995 467.12999999999994 423.66999999999996 467.12999999999994C422.79999999999995 467.12999999999994 422.18999999999994 467.94999999999993 422.18999999999994 469.10999999999996C422.18999999999994 469.90999999999997 422.59999999999997 470.4 423.2799999999999 470.4C423.5599999999999 470.4 423.87999999999994 470.31 424.25999999999993 470.13L424.05999999999995 471.33C423.62999999999994 471.44 423.34999999999997 471.49 423.03 471.49C421.78 471.49 421 470.61 421 469.21000000000004C421 467.32000000000005 422.08 466.00000000000006 423.62 466.00000000000006C424.13 466.00000000000006 424.73 466.21000000000004 424.9 466.27000000000004 " fill="#ffffff" fill-opacity="1" transform="matrix(1,0,0,1,-391,-452)"></path><path id="SvgjsPath1073" d="M427.12 469.46C426.46 469.46 426.12 469.68 426.12 470.10999999999996C426.12 470.37999999999994 426.29 470.54999999999995 426.54 470.54999999999995C427.01000000000005 470.54999999999995 427.36 470.10999999999996 427.38 469.47999999999996C427.25 469.46 427.2 469.46 427.12 469.46ZM427.26 471.39L427.28 470.94C426.98999999999995 471.3 426.59 471.46 426.05999999999995 471.46C425.42999999999995 471.46 424.99999999999994 470.98999999999995 424.99999999999994 470.28999999999996C424.99999999999994 469.23999999999995 425.74999999999994 468.64 427.03999999999996 468.64C427.16999999999996 468.64 427.34 468.65 427.51 468.66999999999996C427.55 468.53 427.56 468.46999999999997 427.56 468.39C427.56 468.11 427.36 468 426.81 468C426.25 467.99 425.78000000000003 468.13 425.58 468.19C425.59999999999997 468.12 425.75 467.23 425.75 467.23C426.32 467.06 426.71 467 427.14 467C428.13 467 428.65999999999997 467.44 428.65999999999997 468.26C428.66999999999996 468.48 428.63 468.75 428.57 469.11C428.46999999999997 469.73 428.25 471.07 428.21999999999997 471.39C428.07 471.39 427.26 471.39 427.26 471.39Z " fill="#ffffff" fill-opacity="1" transform="matrix(1,0,0,1,-391,-452)"></path><path id="SvgjsPath1074" d="M414.75 470.88C414.44 470.98 414.19 471.02 413.92 471.02C413.33000000000004 471.02 413 470.69 413 470.07C412.99 469.88 413.09 469.39 413.16 468.93C413.23 468.53000000000003 413.66 466 413.66 466H414.82000000000005L414.68000000000006 466.65H415.2800000000001L415.12000000000006 467.67999999999995H414.52000000000004C414.39000000000004 468.49999999999994 414.20000000000005 469.50999999999993 414.20000000000005 469.65C414.20000000000005 469.87 414.32000000000005 469.96999999999997 414.6 469.96999999999997C414.73 469.96999999999997 414.83000000000004 469.96 414.91 469.92999999999995L414.75 470.87999999999994 " fill="#ffffff" fill-opacity="1" transform="matrix(1,0,0,1,-391,-452)"></path><path id="SvgjsPath1075" d="M416.97 471.46C415.67 471.46 415 470.81 415 469.54999999999995C415 468.0799999999999 415.86 466.99999999999994 417.02 466.99999999999994C417.97999999999996 466.99999999999994 418.58 467.59999999999997 418.58 468.54999999999995C418.58 468.86999999999995 418.53999999999996 469.17999999999995 418.44 469.60999999999996H416.14C416.06 470.22999999999996 416.46999999999997 470.48999999999995 417.14 470.48999999999995C417.56 470.48999999999995 417.93 470.40999999999997 418.34999999999997 470.21999999999997L418.15 471.28999999999996C417.76 471.40999999999997 417.37 471.46 416.96999999999997 471.46ZM416.97 467.98C416.6 467.98 416.34000000000003 468.25 416.23 468.74H417.5C417.51 468.65000000000003 417.63 467.98 416.97 467.98Z " fill="#ffffff" fill-opacity="1" transform="matrix(1,0,0,1,-391,-452)"></path><path id="SvgjsPath1076" d="M410.44 468.45C410.44 469 410.71 469.37 411.33 469.65C411.8 469.87 411.87 469.92999999999995 411.87 470.13C411.87 470.39 411.66 470.51 411.2 470.51C410.84999999999997 470.51 410.53 470.46 410.15999999999997 470.34999999999997C410.15999999999997 470.34999999999997 410.01 471.28999999999996 409.99999999999994 471.34C410.25999999999993 471.39 410.49999999999994 471.44 411.2099999999999 471.46C412.43999999999994 471.46 412.99999999999994 471.01 412.99999999999994 470.03C412.99999999999994 469.44 412.7699999999999 469.09 412.17999999999995 468.83C411.69999999999993 468.60999999999996 411.63999999999993 468.57 411.63999999999993 468.37C411.63999999999993 468.13 411.8299999999999 468.01 412.2099999999999 468.01C412.43999999999994 468.01 412.74999999999994 468.03999999999996 413.0399999999999 468.08L413.2099999999999 467.08C412.9099999999999 467.03999999999996 412.44999999999993 467 412.18999999999994 467C410.88999999999993 467 410.43999999999994 467.66 410.43999999999994 468.45 " fill="#ffffff" fill-opacity="1" transform="matrix(1,0,0,1,-391,-452)"></path><path id="SvgjsPath1077" d="M433.42 471.28L433.48 470.88C433.16 471.21 432.83000000000004 471.35 432.40000000000003 471.35C431.56000000000006 471.35 431.00000000000006 470.65000000000003 431.00000000000006 469.57000000000005C431.00000000000006 468.14000000000004 431.87000000000006 466.94000000000005 432.89000000000004 466.94000000000005C433.34000000000003 466.94000000000005 433.68000000000006 467.12000000000006 434.00000000000006 467.53000000000003L434.26000000000005 466.00000000000006H435.41L434.52000000000004 471.28000000000003ZM433.73 468.84C433.73 468.28999999999996 433.51 468 433.11 468C432.58000000000004 468 432.21000000000004 468.6 432.21000000000004 469.44C432.21000000000004 470 432.41 470.29 432.81000000000006 470.29C433.3500000000001 470.29 433.7300000000001 469.69 433.7300000000001 468.84000000000003Z " fill="#ffffff" fill-opacity="1" transform="matrix(1,0,0,1,-391,-452)"></path><path id="SvgjsPath1078" d="M428.66 467.05C428.51000000000005 468.37 428.26000000000005 469.72 428.05 471.05L428 471.34000000000003H429.16C429.58000000000004 468.71000000000004 429.68 468.20000000000005 430.33000000000004 468.27000000000004C430.44000000000005 467.73 430.63000000000005 467.26000000000005 430.77000000000004 467.02000000000004C430.29 466.92 430.01000000000005 467.19000000000005 429.66 467.70000000000005C429.69 467.48 429.74 467.26000000000005 429.73 467.05000000000007H428.66 " fill="#ffffff" fill-opacity="1" transform="matrix(1,0,0,1,-391,-452)"></path><path id="SvgjsPath1079" d="M419.66 467.05C419.51000000000005 468.37 419.25 469.72 419.05 471.05L419 471.34000000000003H420.16C420.58000000000004 468.71000000000004 420.68 468.20000000000005 421.33000000000004 468.27000000000004C421.44000000000005 467.73 421.63000000000005 467.26000000000005 421.77000000000004 467.02000000000004C421.29 466.92 421.01000000000005 467.19000000000005 420.66 467.70000000000005C420.69 467.48 420.74 467.26000000000005 420.73 467.05000000000007H419.66 " fill="#ffffff" fill-opacity="1" transform="matrix(1,0,0,1,-391,-452)"></path></svg>