<svg id="SvgjsSvg1080" xmlns="http://www.w3.org/2000/svg" version="1.1" xmlns:xlink="http://www.w3.org/1999/xlink" xmlns:svgjs="http://svgjs.com/svgjs" width="55" height="32" viewBox="0 0 55 32"><title>Rectangle</title><desc>Created with Avocode.</desc><defs id="SvgjsDefs1081"></defs><path id="SvgjsPath1082" d="M452 453.58025C452 452.7075 452.7075 452 453.58025 452H505.29976C506.17251 452 506.88000999999997 452.7075 506.88000999999997 453.58025V482.41976C506.88000999999997 483.29251 506.17251 484.00001 505.29976 484.00001H453.58025C452.7075 484.00001 452 483.29251 452 482.41976Z " fill="#000066" fill-opacity="1" transform="matrix(1,0,0,1,-452,-452)"></path><path id="SvgjsPath1083" d="M497.88 467.68C497.88 473.57 492.99 478.35 486.94 478.35C480.9 478.35 476 473.57000000000005 476 467.68C476 461.78000000000003 480.9 457 486.94 457C492.99 457 497.88 461.78 497.88 467.68 " fill="#cc0000" fill-opacity="1" transform="matrix(1,0,0,1,-452,-452)"></path><path id="SvgjsPath1084" d="M478.18 474.46C477.88 474.09999999999997 477.6 473.71999999999997 477.35 473.32H481.23C481.46000000000004 472.96 481.67 472.58 481.86 472.19H476.72C476.55 471.83 476.39000000000004 471.45 476.26000000000005 471.06H482.32000000000005C482.69000000000005 470 482.89000000000004 468.86 482.89000000000004 467.68C482.89000000000004 466.90000000000003 482.80000000000007 466.14 482.64000000000004 465.41H475.94000000000005C476.03000000000003 465.03000000000003 476.13000000000005 464.65000000000003 476.26000000000005 464.28000000000003H482.32000000000005C482.19000000000005 463.90000000000003 482.03000000000003 463.52000000000004 481.86000000000007 463.15000000000003H476.7200000000001C476.9100000000001 462.76000000000005 477.12000000000006 462.39000000000004 477.3500000000001 462.02000000000004H481.2300000000001C480.9800000000001 461.63000000000005 480.7000000000001 461.25000000000006 480.3900000000001 460.89000000000004H478.1900000000001C478.5300000000001 460.49000000000007 478.9000000000001 460.11000000000007 479.29000000000013 459.76000000000005C477.35000000000014 458.05000000000007 474.77000000000015 457.00000000000006 471.9400000000001 457.00000000000006C465.9000000000001 457.00000000000006 461.0000000000001 461.78000000000003 461.0000000000001 467.68000000000006C461.0000000000001 473.57000000000005 465.9000000000001 478.3500000000001 471.9400000000001 478.3500000000001C474.7700000000001 478.3500000000001 477.35000000000014 477.30000000000007 479.29000000000013 475.5900000000001C479.6900000000001 475.24000000000007 480.0600000000001 474.86000000000007 480.40000000000015 474.4600000000001H478.1800000000001 " fill="#0066cc" fill-opacity="1" transform="matrix(1,0,0,1,-452,-452)"></path><path id="SvgjsPath1085" d="M478.32 470.6C476.79 470.6 476 469.92 476 468.63C476 467.11 477.01 466 478.38 466C479.51 466 480.21999999999997 466.62 480.21999999999997 467.6C480.21999999999997 467.93 480.16999999999996 468.24 480.05999999999995 468.69H477.3399999999999C477.24999999999994 469.32 477.7199999999999 469.6 478.5299999999999 469.6C479.00999999999993 469.6 479.44999999999993 469.52000000000004 479.9299999999999 469.33000000000004L479.7199999999999 470.42C479.2499999999999 470.54 478.7999999999999 470.6 478.31999999999994 470.6ZM478.35 467.01C477.92 467.01 477.61 467.28999999999996 477.48 467.8H478.99C478.99 467.7 479.14 467.02000000000004 478.35 467.01Z " fill="#000066" fill-opacity="1" transform="matrix(1,0,0,1,-452,-452)"></path><path id="SvgjsPath1086" d="M480.52 467.5C480.52 468.06 480.84999999999997 468.45 481.58 468.73C482.14 468.96000000000004 482.22999999999996 469.02000000000004 482.22999999999996 469.22C482.22999999999996 469.5 481.97999999999996 469.63000000000005 481.42999999999995 469.62C481.0199999999999 469.62 480.63999999999993 469.57 480.19999999999993 469.45L479.99999999999994 470.46999999999997C480.3999999999999 470.55999999999995 480.94999999999993 470.59 481.43999999999994 470.59999999999997C482.90999999999997 470.59999999999997 483.5799999999999 470.12999999999994 483.5799999999999 469.11999999999995C483.5799999999999 468.5199999999999 483.29999999999995 468.15999999999997 482.6099999999999 467.88999999999993C482.0199999999999 467.6599999999999 481.9599999999999 467.61999999999995 481.9599999999999 467.4099999999999C481.9599999999999 467.1699999999999 482.18999999999994 467.0499999999999 482.63999999999993 467.0499999999999C482.9099999999999 467.0499999999999 483.2799999999999 467.0699999999999 483.62999999999994 467.1099999999999L483.8299999999999 466.0899999999999C483.4699999999999 466.0399999999999 482.92999999999995 465.99999999999994 482.6099999999999 465.99999999999994C481.0599999999999 465.99999999999994 480.5199999999999 466.67999999999995 480.5199999999999 467.49999999999994 " fill="#000066" fill-opacity="1" transform="matrix(1,0,0,1,-452,-452)"></path><path id="SvgjsPath1087" d="M473.66 470.53L473.69 470.05999999999995C473.34 470.42999999999995 472.88 470.59999999999997 472.25 470.59999999999997C471.51 470.59999999999997 471 470.10999999999996 471 469.4C471 468.31 471.88 467.69 473.4 467.69C473.56 467.69 473.76 467.7 473.96 467.71999999999997C474 467.58 474.02 467.51 474.02 467.44C474.02 467.14 473.78 467.03 473.14 467.03C472.51 467.03 472.08 467.11999999999995 471.69 467.22999999999996L471.88 466.23999999999995C472.56 466.06999999999994 473.01 465.99999999999994 473.52 465.99999999999994C474.69 465.99999999999994 475.32 466.44999999999993 475.32 467.29999999999995C475.33 467.52 475.24 467.97999999999996 475.2 468.16999999999996C475.15999999999997 468.46 474.83 470.14 474.8 470.53ZM473.49 468.54C472.72 468.54 472.32 468.76000000000005 472.32 469.21000000000004C472.32 469.49 472.52 469.66 472.82 469.66C473.37 469.66 473.78 469.21000000000004 473.8 468.55C473.65000000000003 468.54 473.59000000000003 468.54 473.49 468.54Z " fill="#000066" fill-opacity="1" transform="matrix(1,0,0,1,-452,-452)"></path><path id="SvgjsPath1088" d="M486.06 470.42C485.69 470.52000000000004 485.39 470.56 485.08 470.56C484.38 470.56 484 470.21 484 469.59C483.98 469.41999999999996 484.15 468.64 484.19 468.41999999999996C484.23 468.19999999999993 484.83 464.99999999999994 484.83 464.99999999999994H486.19L485.98 466.05999999999995H486.68L486.49 467.13999999999993H485.79C485.79 467.13999999999993 485.41 469.00999999999993 485.41 469.1599999999999C485.41 469.38999999999993 485.55 469.4799999999999 485.87 469.4799999999999C486.03000000000003 469.4799999999999 486.15 469.4699999999999 486.24 469.4399999999999L486.06 470.4199999999999 " fill="#000066" fill-opacity="1" transform="matrix(1,0,0,1,-452,-452)"></path><path id="SvgjsPath1089" d="M489.4 467.07L489.78999999999996 466.08C489.06999999999994 465.83 488.59999999999997 466.19 488.17999999999995 466.71999999999997C488.17999999999995 466.71999999999997 488.10999999999996 466.79999999999995 488.03999999999996 466.88V466.11H486.77C486.59999999999997 467.48 486.29999999999995 468.87 486.06 470.24L486 470.54H487.37C487.5 469.84000000000003 487.6 469.28000000000003 487.71 468.83000000000004C488 467.59000000000003 488.48999999999995 467.21000000000004 489.21999999999997 467.38000000000005C489.04999999999995 467.7300000000001 488.96 468.14000000000004 488.96 468.6000000000001C488.96 469.7100000000001 489.58 470.61000000000007 491.09999999999997 470.61000000000007C492.65 470.61000000000007 493.76 469.81000000000006 493.76 467.9700000000001C493.76 466.87000000000006 493.02 466.0100000000001 491.62 466.0100000000001C490.62 466.0100000000001 489.85 466.4100000000001 489.4 467.0700000000001ZM490.44 468.56C490.44 467.85 490.87 467.06 491.56 467.06C492.11 467.06 492.3 467.49 492.3 467.95C492.3 468.94 491.88 469.53999999999996 491.22 469.53999999999996C490.74 469.53999999999996 490.44000000000005 469.15 490.44000000000005 468.55999999999995Z " fill="#000066" fill-opacity="1" transform="matrix(1,0,0,1,-452,-452)"></path><path id="SvgjsPath1090" d="M470.93 471.41H469.57L470.38 467.25L468.52 471.41H467.27L467.04999999999995 467.28000000000003L466.23999999999995 471.41H464.99999999999994L466.04999999999995 466H468.17999999999995L468.35999999999996 469.02L469.71 466H472.01L470.93 471.41 " fill="#000066" fill-opacity="1" transform="matrix(1,0,0,1,-452,-452)"></path><path id="SvgjsPath1091" d="M478.32 470.6C476.79 470.6 476 469.92 476 468.63C476 467.11 477.01 466 478.38 466C479.51 466 480.21999999999997 466.62 480.21999999999997 467.6C480.21999999999997 467.93 480.16999999999996 468.24 480.05999999999995 468.69H477.3399999999999C477.24999999999994 469.32 477.7199999999999 469.6 478.5299999999999 469.6C479.00999999999993 469.6 479.44999999999993 469.52000000000004 479.9299999999999 469.33000000000004L479.7199999999999 470.42C479.2499999999999 470.54 478.7999999999999 470.6 478.31999999999994 470.6ZM478.35 467.01C477.92 467.01 477.61 467.28999999999996 477.48 467.8H478.99C478.99 467.7 479.14 467.02000000000004 478.35 467.01Z " fill="#ffffff" fill-opacity="1" transform="matrix(1,0,0,1,-452,-452)"></path><path id="SvgjsPath1092" d="M480.53 467.5C480.53 468.06 480.84999999999997 468.45 481.58 468.73C482.14 468.96000000000004 482.22999999999996 469.02000000000004 482.22999999999996 469.22C482.22999999999996 469.5 481.97999999999996 469.63000000000005 481.42999999999995 469.62C481.0199999999999 469.62 480.63999999999993 469.57 480.19999999999993 469.45L479.99999999999994 470.46999999999997C480.3999999999999 470.55999999999995 480.94999999999993 470.59 481.43999999999994 470.59999999999997C482.90999999999997 470.59999999999997 483.5799999999999 470.12999999999994 483.5799999999999 469.11999999999995C483.5799999999999 468.5199999999999 483.29999999999995 468.15999999999997 482.6099999999999 467.88999999999993C482.0199999999999 467.6599999999999 481.9599999999999 467.61999999999995 481.9599999999999 467.4099999999999C481.9599999999999 467.1699999999999 482.18999999999994 467.0499999999999 482.63999999999993 467.0499999999999C482.9099999999999 467.0499999999999 483.2799999999999 467.0699999999999 483.62999999999994 467.1099999999999L483.8299999999999 466.0899999999999C483.4699999999999 466.0399999999999 482.92999999999995 465.99999999999994 482.6099999999999 465.99999999999994C481.0599999999999 465.99999999999994 480.5199999999999 466.67999999999995 480.5299999999999 467.49999999999994 " fill="#ffffff" fill-opacity="1" transform="matrix(1,0,0,1,-452,-452)"></path><path id="SvgjsPath1093" d="M474.66 470.53L474.69 470.05999999999995C474.34 470.42999999999995 473.88 470.59999999999997 473.25 470.59999999999997C472.51 470.59999999999997 472 470.10999999999996 472 469.39C472 468.31 472.88 467.69 474.4 467.69C474.56 467.69 474.76 467.7 474.96 467.71999999999997C475.01 467.58 475.02 467.51 475.02 467.44C475.02 467.14 474.78 467.03 474.14 467.03C473.51 467.03 473.08 467.11999999999995 472.69 467.22999999999996L472.88 466.22999999999996C473.56 466.06999999999994 474.01 465.99999999999994 474.52 465.99999999999994C475.69 465.99999999999994 476.32 466.44999999999993 476.32 467.29999999999995C476.33 467.52 476.24 467.96999999999997 476.2 468.16999999999996C476.15999999999997 468.46 475.83 470.12999999999994 475.8 470.53ZM474.49 468.54C473.72 468.54 473.32 468.76000000000005 473.32 469.21000000000004C473.32 469.49 473.52 469.66 473.82 469.66C474.37 469.66 474.78 469.21000000000004 474.8 468.55C474.66 468.54 474.59000000000003 468.54 474.49 468.54Z " fill="#ffffff" fill-opacity="1" transform="matrix(1,0,0,1,-452,-452)"></path><path id="SvgjsPath1094" d="M486.06 470.42C485.68 470.52000000000004 485.39 470.56 485.08 470.56C484.38 470.56 484 470.21 484 469.59C483.98 469.41999999999996 484.15 468.64 484.19 468.41999999999996C484.23 468.19999999999993 484.83 464.99999999999994 484.83 464.99999999999994H486.19L485.98 466.05999999999995H486.68L486.49 467.13999999999993H485.79C485.79 467.13999999999993 485.41 469.00999999999993 485.41 469.1599999999999C485.41 469.38999999999993 485.55 469.4799999999999 485.87 469.4799999999999C486.03000000000003 469.4799999999999 486.15 469.4699999999999 486.24 469.4399999999999L486.06 470.4199999999999 " fill="#ffffff" fill-opacity="1" transform="matrix(1,0,0,1,-452,-452)"></path><path id="SvgjsPath1095" d="M492.26 469.53C491.77 469.53999999999996 491.48 469.14 491.48 468.54999999999995C491.48 467.84999999999997 491.91 467.04999999999995 492.59000000000003 467.04999999999995C493.15000000000003 467.04999999999995 493.34000000000003 467.47999999999996 493.34000000000003 467.93999999999994C493.34000000000003 468.93999999999994 492.92 469.5299999999999 492.26000000000005 469.5299999999999ZM492.66 466C491.04 466 490 467.05 490 468.59C490 469.7 490.61 470.59999999999997 492.14 470.59999999999997C493.68 470.59999999999997 494.8 469.79999999999995 494.8 467.96999999999997C494.8 466.85999999999996 494.06 465.99999999999994 492.66 465.99999999999994Z " fill="#ffffff" fill-opacity="1" transform="matrix(1,0,0,1,-452,-452)"></path><path id="SvgjsPath1096" d="M487.77 466.05C487.59999999999997 467.42 487.29999999999995 468.81 487.06 470.18L487 470.48H488.37C488.86 467.83000000000004 489.03000000000003 467.07 490.06 467.34000000000003L490.56 466.08000000000004C489.84 465.83000000000004 489.37 466.19000000000005 488.95 466.72C488.99 466.48 489.06 466.26000000000005 489.03999999999996 466.05H487.77 " fill="#ffffff" fill-opacity="1" transform="matrix(1,0,0,1,-452,-452)"></path><path id="SvgjsPath1097" d="M470.93 470.41H469.57L470.38 466.25L468.52 470.41H467.27L467.04999999999995 466.28000000000003L466.23999999999995 470.41H464.99999999999994L466.04999999999995 465H468.17999999999995L468.28999999999996 468.35L469.78999999999996 465H472.01L470.93 470.41 " fill="#ffffff" fill-opacity="1" transform="matrix(1,0,0,1,-452,-452)"></path></svg>