<svg id="SvgjsSvg1098" xmlns="http://www.w3.org/2000/svg" version="1.1" xmlns:xlink="http://www.w3.org/1999/xlink" xmlns:svgjs="http://svgjs.com/svgjs" width="55" height="32" viewBox="0 0 55 32"><title>Rectangle</title><desc>Created with Avocode.</desc><defs id="SvgjsDefs1099"></defs><path id="SvgjsPath1100" d="M515 453.58025C515 452.7075 515.7075 452 516.58025 452H568.41976C569.29251 452 570.00001 452.7075 570.00001 453.58025V482.41976C570.00001 483.29251 569.29251 484.00001 568.41976 484.00001H516.58025C515.7075 484.00001 515 483.29251 515 482.41976Z " fill="#0072ce" fill-opacity="1" transform="matrix(1,0,0,1,-515,-452)"></path><path id="SvgjsPath1101" d="M561.32 472C561.2900000000001 471.97 561.2700000000001 471.93 561.23 471.9C560.99 471.65999999999997 560.6 471.56 560.02 471.54999999999995L559.4399999999999 471.53C559.26 471.53 559.14 471.52 559.03 471.48999999999995C558.89 471.43999999999994 558.8 471.3299999999999 558.8 471.15999999999997C558.8 471.03 558.8399999999999 470.91999999999996 558.9499999999999 470.84999999999997C559.06 470.78 559.1899999999999 470.78 559.3799999999999 470.78H561.3199999999999ZM561.32 473.62V474.74C560.9000000000001 474.94 560.34 475.02 559.7600000000001 475.02H557.0100000000001V474.63C556.69 474.88 556.1100000000001 475.02 555.5600000000001 475.02H546.87V473.63C546.87 473.46 546.85 473.45 546.67 473.45H546.54V475.02H543.68V473.39C543.1999999999999 473.59 542.65 473.61 542.1899999999999 473.61H541.8499999999999V475.02000000000004H538.3799999999999L537.5299999999999 474.08000000000004L536.6299999999999 475.02000000000004H530.9999999999999V469.00000000000006H536.7299999999999L537.56 469.9200000000001L538.4399999999999 469.00000000000006H542.28C542.72 469.00000000000006 543.4499999999999 469.05000000000007 543.77 469.3500000000001V469.00000000000006H547.1999999999999C547.53 469.00000000000006 548.2299999999999 469.06000000000006 548.64 469.3500000000001V469.00000000000006H553.84V469.3500000000001C554.1 469.11000000000007 554.65 469.00000000000006 555.11 469.00000000000006H558.02V469.3500000000001C558.3299999999999 469.1400000000001 558.76 469.00000000000006 559.35 469.00000000000006H561.32V469.86000000000007H559.2C558.09 469.86000000000007 557.6800000000001 470.5200000000001 557.6800000000001 471.14000000000004C557.6800000000001 472.51000000000005 558.9200000000001 472.44000000000005 559.9200000000001 472.48C560.1100000000001 472.48 560.22 472.51 560.3000000000001 472.57C560.3800000000001 472.63 560.4300000000001 472.73 560.4300000000001 472.86C560.4300000000001 472.98 560.3800000000001 473.07 560.3000000000001 473.14C560.22 473.21999999999997 560.07 473.25 559.8700000000001 473.25H557.8300000000002V474.17H559.8800000000001C560.5600000000001 474.17 561.0700000000002 473.99 561.3200000000002 473.62ZM557.08 471.9C556.84 471.65999999999997 556.44 471.56 555.87 471.54999999999995L555.29 471.53C555.11 471.53 554.99 471.52 554.88 471.48999999999995C554.74 471.43999999999994 554.65 471.3299999999999 554.65 471.15999999999997C554.65 471.03 554.6899999999999 470.91999999999996 554.81 470.84999999999997C554.91 470.78 555.04 470.78 555.2299999999999 470.78H557.18V469.85999999999996H555.05C553.93 469.85999999999996 553.53 470.52 553.53 471.13999999999993C553.53 472.50999999999993 554.78 472.43999999999994 555.77 472.4799999999999C555.96 472.4799999999999 556.0699999999999 472.5099999999999 556.15 472.5699999999999C556.22 472.6299999999999 556.28 472.7299999999999 556.28 472.8599999999999C556.28 472.9799999999999 556.23 473.0699999999999 556.15 473.1399999999999C556.06 473.21999999999986 555.92 473.2499999999999 555.72 473.2499999999999H553.65V474.1699999999999H555.73C556.8000000000001 474.1699999999999 557.4 473.7399999999999 557.4 472.8099999999999C557.4 472.3699999999999 557.29 472.0999999999999 557.0799999999999 471.89999999999986ZM546.95 471.72H545.6600000000001V470.75H546.97C547.1600000000001 470.75 547.35 470.75 547.48 470.83C547.62 470.9 547.7 471.03 547.7 471.21999999999997C547.7 471.4 547.62 471.54999999999995 547.48 471.63C547.34 471.71 547.16 471.71999999999997 546.95 471.71999999999997ZM548.12 472.17C548.4 472.06 548.88 471.71000000000004 548.88 471.02000000000004C548.88 470.53000000000003 548.67 470.26000000000005 548.33 470.06000000000006C547.98 469.88000000000005 547.59 469.86000000000007 547.0500000000001 469.86000000000007H544.59V474.1700000000001H545.6600000000001V472.6000000000001H546.8000000000001C547.19 472.6000000000001 547.4200000000001 472.63000000000005 547.58 472.7900000000001C547.7800000000001 472.99000000000007 547.75 473.37000000000006 547.75 473.63000000000005V474.1700000000001H548.82V473.32000000000005C548.82 472.94000000000005 548.7900000000001 472.74000000000007 548.6400000000001 472.53000000000003C548.5500000000001 472.40000000000003 548.3600000000001 472.25000000000006 548.1200000000001 472.17ZM549.47 469.86V474.17H553.02V473.28000000000003L550.53 473.27000000000004V472.41H552.9599999999999V471.53000000000003H550.53V470.75000000000006H553.02V469.86000000000007ZM542.29 471.85C542.6999999999999 471.85 542.9499999999999 471.65000000000003 542.9499999999999 471.28000000000003C542.9499999999999 470.90000000000003 542.6899999999999 470.75000000000006 542.3 470.75000000000006H540.91V471.8500000000001ZM539.85 473.78V470.32L538.22 472.02ZM535.64 473.27L536.85 472.01L535.69 470.75H533.0200000000001V471.53H535.3600000000001V472.40999999999997H533.0200000000001V473.27ZM544.09 471.28C544.09 470.08 543.15 469.85999999999996 542.3000000000001 469.85999999999996H538.9000000000001L537.5500000000001 471.27L536.2400000000001 469.85999999999996H531.9600000000002V474.16999999999996H536.1700000000002L537.5400000000002 472.73999999999995L538.8500000000001 474.16999999999996H540.9100000000001V472.71999999999997H542.2400000000001C543.1700000000001 472.71999999999997 544.0900000000001 472.47999999999996 544.0900000000001 471.28Z " fill="#ffffff" fill-opacity="1" transform="matrix(1,0,0,1,-515,-452)"></path><path id="SvgjsPath1102" d="M526.41 464.31L525.68 462.59L524.9599999999999 464.31ZM542.45 463.62C542.59 463.55 542.6700000000001 463.4 542.6700000000001 463.21C542.6700000000001 463.03 542.59 462.89 542.45 462.83C542.32 462.76 542.13 462.75 541.94 462.75H540.6300000000001V463.71H541.9300000000001C542.1300000000001 463.71 542.3100000000001 463.71 542.45 463.62ZM550.94 462.59L550.2 464.31H551.6700000000001ZM533.4 466.17L533.39 462.79L531.85 466.17H530.9200000000001L529.3700000000001 462.79V466.17H527.2000000000002L526.8000000000002 465.21000000000004H524.5800000000002L524.1700000000002 466.17H523.0100000000002L524.9200000000002 461.86H526.5000000000002L528.3100000000002 465.94V461.86H530.0400000000002L531.4400000000002 464.78000000000003L532.7200000000001 461.86H534.4900000000001V466.17ZM535.28 466.17V461.86H538.8299999999999V462.75H536.3399999999999V463.53H538.7699999999999V464.40999999999997H536.3399999999999V465.28H538.8299999999999V466.16999999999996ZM543.09 464.17C543.33 464.25 543.5300000000001 464.40000000000003 543.62 464.53000000000003C543.77 464.74 543.8 464.94000000000005 543.8 465.32000000000005V466.1700000000001H542.7199999999999V465.62000000000006C542.7199999999999 465.36000000000007 542.7499999999999 464.99000000000007 542.55 464.7800000000001C542.4 464.6300000000001 542.16 464.6000000000001 541.78 464.6000000000001H540.63V466.1700000000001H539.57V461.86000000000007H542.0200000000001C542.5600000000001 461.86000000000007 542.9600000000002 461.87000000000006 543.3100000000001 462.06000000000006C543.6400000000001 462.25000000000006 543.84 462.5400000000001 543.84 463.02000000000004C543.84 463.70000000000005 543.37 464.06000000000006 543.09 464.17ZM544.46 466.17V461.86H545.5500000000001V466.17ZM556.63 466.17L554.62 462.93V466.17H552.45L552.0400000000001 465.21000000000004H549.83L549.4200000000001 466.17H548.1800000000001C547.6600000000001 466.17 547.0100000000001 466.06 546.6400000000001 465.69C546.2600000000001 465.32 546.07 464.83 546.07 464.04C546.07 463.40000000000003 546.1800000000001 462.82 546.6400000000001 462.36C546.9900000000001 462.01 547.5200000000001 461.86 548.2600000000001 461.86H549.2900000000001V462.78000000000003H548.2800000000001C547.8900000000001 462.78000000000003 547.6700000000001 462.84000000000003 547.46 463.03000000000003C547.2800000000001 463.22 547.1500000000001 463.56 547.1500000000001 464.01000000000005C547.1500000000001 464.47 547.2500000000001 464.81000000000006 547.45 465.02000000000004C547.61 465.19000000000005 547.9100000000001 465.25000000000006 548.19 465.25000000000006H548.6700000000001L550.1700000000001 461.86000000000007H551.7600000000001L553.5600000000001 465.93000000000006V461.86000000000007H555.1800000000001L557.0500000000001 464.86000000000007V461.86000000000007H558.1400000000001V466.1700000000001ZM524.82 467.01L525.23 466.06H526.15L526.55 467.01H530.13V466.28L530.45 467.02H532.3100000000001L532.6300000000001 466.27V467.01H541.5100000000001V465.44H541.6800000000001C541.8000000000001 465.45 541.84 465.46 541.84 465.65V467.01H546.4300000000001V466.65C546.8100000000001 466.84 547.3800000000001 467.01 548.1400000000001 467.01H550.07L550.49 466.06H551.41L551.81 467.01H555.54V466.09999999999997L556.0999999999999 467.01H559.0899999999999V461H556.1299999999999V461.71L555.7199999999999 461H552.6899999999999V461.71L552.31 461H548.2099999999999C547.5199999999999 461 546.92 461.09 546.43 461.35V461H543.6099999999999V461.35C543.3 461.08000000000004 542.8799999999999 461 542.4099999999999 461H532.0799999999998L531.3799999999998 462.55L530.6699999999997 461H527.4199999999997V461.71L527.0599999999997 461H524.2899999999997L522.9999999999998 463.86V467.01Z " fill="#ffffff" fill-opacity="1" transform="matrix(1,0,0,1,-515,-452)"></path></svg>